<svg xmlns="http://www.w3.org/2000/svg" version="1.1" xmlns:xlink="http://www.w3.org/1999/xlink" width="1000" height="1000"><g clip-path="url(#SvgjsClipPath1173)"><rect width="1000" height="1000" fill="#fdf6e8"></rect><g transform="matrix(1.4799154334038056,0,0,1.4799154334038056,150,150)"><svg xmlns="http://www.w3.org/2000/svg" version="1.1" xmlns:xlink="http://www.w3.org/1999/xlink" width="473" height="473"><svg width="473" height="473" viewBox="0 0 473 473" xmlns="http://www.w3.org/2000/svg">
    <path id="Stem" fill="#3a665a" fill-rule="evenodd" stroke="none" d="M 116 447 C 111.581718 447 108 443.418274 108 439 L 108 87 C 108 64.90863 125.908607 47 148 47 L 328 47 C 350.09137 47 368 64.90863 368 87 L 368 227 C 368 249.091385 350.09137 267 328 267 L 265 267 L 265 227 L 304 227 C 317.254822 227 328 216.254822 328 203 L 328 111 C 328 97.745178 317.254822 87 304 87 L 172 87 C 158.745163 87 148 97.745178 148 111 L 148 203 C 148 216.254822 158.745163 227 172 227 L 215 227 L 215 267 L 148 267 L 148 439 C 148 443.418274 144.418274 447 140 447 L 116 447 Z"></path>
</svg></svg></g></g><defs><clipPath id="SvgjsClipPath1173"><rect width="1000" height="1000" x="0" y="0" rx="50" ry="50"></rect></clipPath></defs></svg>